# xmcd CD database file
#
# Track frame offsets:
#	150
#	14773
#	31046
#	55840
#	83386
#	103883
#	131339
#	150290
#	166953
#	183931
#	204483
#	224862
#	242086
#	268186
#	288587
#
# Disc length: 4419 seconds
#
# Revision: 2
# Processed by: cddbd v1.4b41PL1 Copyright (c) Steve Scherf et al.
# Submitted via: Feurio! 1.51.11ß - http://www.feurio.com
#
DISCID=cf11410f
DTITLE=Kenny Wayne Shepherd - Blues
DYEAR=1900
DGENRE=
TTITLE0=In 2 Deep
TTITLE1=Oh Well
TTITLE2=Blue On Black
TTITLE3=Deja Voodoo
TTITLE4=Last Goodbye
TTITLE5=Shame, Shame, Shame
TTITLE6=Kenny Wayne Shephard - You Should Know Better
TTITLE7=Kenny Wayne Shephard - Wild Love
TTITLE8=Kenny Wayne Shephard - Every Time It Rains
TTITLE9=Kenny Wayne Shephard - I Dont Live Today
TTITLE10=Kenny Wayne Shephard - Losing Kind
TTITLE11=Kenny Wayne Shephard - Slow_Ride
TTITLE12=Kenny Wayne Shephard - True Lies
TTITLE13=Blue On Black (Acoustic)
TTITLE14=Kenny Wayne Sheppard - Voodoo Child
EXTD=
EXTT0=
EXTT1=
EXTT2=
EXTT3=
EXTT4=
EXTT5=
EXTT6=
EXTT7=
EXTT8=
EXTT9=
EXTT10=
EXTT11=
EXTT12=
EXTT13=
EXTT14=
PLAYORDER=
